<svg xmlns="http://www.w3.org/2000/svg" viewBox="0 0 1400 900">
  <defs>
    <radialGradient id="bg1" cx="30%" cy="40%" r="80%">
      <stop offset="0%" stop-color="#0a2e1a"/>
      <stop offset="60%" stop-color="#051a0e"/>
      <stop offset="100%" stop-color="#020d07"/>
    </radialGradient>
    <radialGradient id="glow1" cx="50%" cy="50%" r="50%">
      <stop offset="0%" stop-color="#16a34a" stop-opacity="0.3"/>
      <stop offset="100%" stop-color="#16a34a" stop-opacity="0"/>
    </radialGradient>
  </defs>
  <rect width="1400" height="900" fill="url(#bg1)"/>
  <!-- Molecule rings -->
  <circle cx="200" cy="200" r="120" fill="none" stroke="#16a34a" stroke-width="0.8" opacity="0.3"/>
  <circle cx="200" cy="200" r="80"  fill="none" stroke="#22c55e" stroke-width="0.5" opacity="0.2"/>
  <circle cx="200" cy="200" r="40"  fill="none" stroke="#4ade80" stroke-width="0.5" opacity="0.15"/>
  <circle cx="200" cy="200" r="8"   fill="#4ade80" opacity="0.6"/>
  <!-- Atom bonds -->
  <line x1="200" y1="200" x2="400" y2="150" stroke="#22c55e" stroke-width="0.8" opacity="0.25"/>
  <line x1="200" y1="200" x2="350" y2="350" stroke="#22c55e" stroke-width="0.8" opacity="0.25"/>
  <line x1="200" y1="200" x2="80"  y2="350" stroke="#22c55e" stroke-width="0.8" opacity="0.2"/>
  <circle cx="400" cy="150" r="12" fill="none" stroke="#4ade80" stroke-width="1" opacity="0.4"/>
  <circle cx="350" cy="350" r="10" fill="none" stroke="#4ade80" stroke-width="1" opacity="0.4"/>
  <circle cx="80"  cy="350" r="8"  fill="none" stroke="#4ade80" stroke-width="1" opacity="0.3"/>
  <!-- DNA-like helix right side -->
  <path d="M1100,0 Q1150,150 1100,300 Q1050,450 1100,600 Q1150,750 1100,900" fill="none" stroke="#16a34a" stroke-width="1.5" opacity="0.2"/>
  <path d="M1150,0 Q1100,150 1150,300 Q1200,450 1150,600 Q1100,750 1150,900" fill="none" stroke="#22c55e" stroke-width="1"   opacity="0.15"/>
  <!-- Cross connections on helix -->
  <line x1="1100" y1="75"  x2="1150" y2="75"  stroke="#4ade80" stroke-width="0.8" opacity="0.3"/>
  <line x1="1100" y1="225" x2="1150" y2="225" stroke="#4ade80" stroke-width="0.8" opacity="0.3"/>
  <line x1="1100" y1="375" x2="1150" y2="375" stroke="#4ade80" stroke-width="0.8" opacity="0.3"/>
  <line x1="1100" y1="525" x2="1150" y2="525" stroke="#4ade80" stroke-width="0.8" opacity="0.3"/>
  <line x1="1100" y1="675" x2="1150" y2="675" stroke="#4ade80" stroke-width="0.8" opacity="0.3"/>
  <line x1="1100" y1="825" x2="1150" y2="825" stroke="#4ade80" stroke-width="0.8" opacity="0.3"/>
  <!-- Glow center -->
  <ellipse cx="700" cy="450" rx="400" ry="300" fill="url(#glow1)"/>
  <!-- Grid dots -->
  <g opacity="0.06" fill="#4ade80">
    <circle cx="600" cy="100" r="2"/><circle cx="700" cy="100" r="2"/><circle cx="800" cy="100" r="2"/>
    <circle cx="600" cy="200" r="2"/><circle cx="700" cy="200" r="2"/><circle cx="800" cy="200" r="2"/>
    <circle cx="600" cy="300" r="2"/><circle cx="700" cy="300" r="2"/><circle cx="800" cy="300" r="2"/>
  </g>
</svg>