<svg xmlns="http://www.w3.org/2000/svg" viewBox="0 0 1400 900">
  <defs>
    <linearGradient id="bg3" x1="0%" y1="0%" x2="100%" y2="100%">
      <stop offset="0%" stop-color="#0f0a2e"/>
      <stop offset="50%" stop-color="#0a1a2e"/>
      <stop offset="100%" stop-color="#0a2e2a"/>
    </linearGradient>
  </defs>
  <rect width="1400" height="900" fill="url(#bg3)"/>
  <!-- Bar chart silhouette -->
  <rect x="100" y="600" width="60" height="200" fill="#7c3aed" opacity="0.15" rx="4"/>
  <rect x="180" y="500" width="60" height="300" fill="#7c3aed" opacity="0.15" rx="4"/>
  <rect x="260" y="400" width="60" height="400" fill="#8b5cf6" opacity="0.15" rx="4"/>
  <rect x="340" y="550" width="60" height="250" fill="#7c3aed" opacity="0.15" rx="4"/>
  <rect x="420" y="450" width="60" height="350" fill="#8b5cf6" opacity="0.15" rx="4"/>
  <rect x="500" y="350" width="60" height="450" fill="#a78bfa" opacity="0.12" rx="4"/>
  <!-- Line chart overlay -->
  <polyline points="100,620 200,510 320,410 440,500 560,360 680,420 800,310 920,380 1040,290 1160,340 1280,250"
            fill="none" stroke="#14b8a6" stroke-width="2" opacity="0.35"/>
  <polyline points="100,700 200,650 320,580 440,620 560,540 680,590 800,510 920,560 1040,490 1160,530 1280,460"
            fill="none" stroke="#8b5cf6" stroke-width="1.5" opacity="0.25"/>
  <!-- Data points -->
  <g fill="#14b8a6" opacity="0.5">
    <circle cx="100" cy="620" r="4"/><circle cx="200" cy="510" r="4"/>
    <circle cx="320" cy="410" r="4"/><circle cx="440" cy="500" r="4"/>
    <circle cx="560" cy="360" r="4"/><circle cx="680" cy="420" r="4"/>
    <circle cx="800" cy="310" r="4"/><circle cx="920" cy="380" r="4"/>
    <circle cx="1040" cy="290" r="4"/><circle cx="1160" cy="340" r="4"/>
    <circle cx="1280" cy="250" r="4"/>
  </g>
  <!-- Scatter plot top right -->
  <g fill="#a78bfa" opacity="0.2">
    <circle cx="1050" cy="150" r="5"/><circle cx="1100" cy="180" r="7"/>
    <circle cx="1150" cy="130" r="4"/><circle cx="1200" cy="200" r="6"/>
    <circle cx="1250" cy="160" r="8"/><circle cx="1300" cy="140" r="5"/>
    <circle cx="1080" cy="220" r="6"/><circle cx="1180" cy="110" r="4"/>
    <circle cx="1320" cy="190" r="7"/><circle cx="1130" cy="250" r="5"/>
  </g>
  <!-- Grid lines -->
  <g stroke="#7c3aed" stroke-width="0.5" opacity="0.08">
    <line x1="0" y1="200" x2="1400" y2="200"/>
    <line x1="0" y1="400" x2="1400" y2="400"/>
    <line x1="0" y1="600" x2="1400" y2="600"/>
    <line x1="0" y1="800" x2="1400" y2="800"/>
    <line x1="200" y1="0" x2="200" y2="900"/>
    <line x1="400" y1="0" x2="400" y2="900"/>
    <line x1="600" y1="0" x2="600" y2="900"/>
    <line x1="800" y1="0" x2="800" y2="900"/>
    <line x1="1000" y1="0" x2="1000" y2="900"/>
    <line x1="1200" y1="0" x2="1200" y2="900"/>
  </g>
</svg>