<svg xmlns="http://www.w3.org/2000/svg" viewBox="0 0 1400 900">
  <defs>
    <radialGradient id="bg5" cx="50%" cy="80%" r="80%">
      <stop offset="0%" stop-color="#1a0505"/>
      <stop offset="60%" stop-color="#0d0303"/>
      <stop offset="100%" stop-color="#050101"/>
    </radialGradient>
  </defs>
  <rect width="1400" height="900" fill="url(#bg5)"/>
  <!-- Factory chimneys -->
  <rect x="200" y="500" width="60" height="300" fill="#1f1f1f" opacity="0.6"/>
  <rect x="320" y="450" width="50" height="350" fill="#1f1f1f" opacity="0.6"/>
  <rect x="900" y="520" width="70" height="280" fill="#1f1f1f" opacity="0.6"/>
  <rect x="1020" y="470" width="55" height="330" fill="#1f1f1f" opacity="0.6"/>
  <rect x="1150" y="500" width="65" height="300" fill="#1f1f1f" opacity="0.6"/>
  <!-- Smoke plumes -->
  <path d="M230,500 Q200,400 240,300 Q280,200 230,100"
        fill="none" stroke="#ef4444" stroke-width="30" stroke-linecap="round" opacity="0.05"/>
  <path d="M345,450 Q310,340 350,230 Q390,120 350,20"
        fill="none" stroke="#ef4444" stroke-width="25" stroke-linecap="round" opacity="0.05"/>
  <path d="M935,520 Q900,410 940,300 Q980,190 935,80"
        fill="none" stroke="#ef4444" stroke-width="35" stroke-linecap="round" opacity="0.05"/>
  <path d="M1048,470 Q1010,360 1050,250 Q1090,140 1048,30"
        fill="none" stroke="#ef4444" stroke-width="28" stroke-linecap="round" opacity="0.05"/>
  <!-- CO2 molecule diagrams -->
  <circle cx="700" cy="200" r="30" fill="none" stroke="#ef4444" stroke-width="1.5" opacity="0.2"/>
  <circle cx="620" cy="200" r="22" fill="none" stroke="#fca5a5" stroke-width="1"   opacity="0.15"/>
  <circle cx="780" cy="200" r="22" fill="none" stroke="#fca5a5" stroke-width="1"   opacity="0.15"/>
  <line x1="648" y1="200" x2="670" y2="200" stroke="#ef4444" stroke-width="2" opacity="0.3"/>
  <line x1="730" y1="200" x2="758" y2="200" stroke="#ef4444" stroke-width="2" opacity="0.3"/>
  <text x="696" y="205" font-family="monospace" font-size="12" fill="#ef4444" opacity="0.35" text-anchor="middle">C</text>
  <text x="620" y="205" font-family="monospace" font-size="10" fill="#fca5a5" opacity="0.3" text-anchor="middle">O</text>
  <text x="780" y="205" font-family="monospace" font-size="10" fill="#fca5a5" opacity="0.3" text-anchor="middle">O</text>
  <!-- Rising line graph -->
  <polyline points="100,800 250,720 400,680 550,620 700,550 850,480 1000,390 1150,300 1300,200"
            fill="none" stroke="#ef4444" stroke-width="2" opacity="0.25"/>
  <g fill="#ef4444" opacity="0.3">
    <circle cx="100" cy="800" r="4"/><circle cx="400" cy="680" r="4"/>
    <circle cx="700" cy="550" r="4"/><circle cx="1000" cy="390" r="4"/>
    <circle cx="1300" cy="200" r="4"/>
  </g>
  <!-- Atmosphere haze top -->
  <rect x="0" y="0" width="1400" height="150" fill="#ef4444" opacity="0.03"/>
</svg>