<svg xmlns="http://www.w3.org/2000/svg" viewBox="0 0 1400 900">
  <defs>
    <radialGradient id="bg2" cx="60%" cy="50%" r="80%">
      <stop offset="0%" stop-color="#0c1a3a"/>
      <stop offset="70%" stop-color="#060e22"/>
      <stop offset="100%" stop-color="#020510"/>
    </radialGradient>
  </defs>
  <rect width="1400" height="900" fill="url(#bg2)"/>
  <!-- Neural network nodes -->
  <!-- Layer 1 -->
  <circle cx="150" cy="200" r="16" fill="none" stroke="#3b82f6" stroke-width="1.5" opacity="0.6"/>
  <circle cx="150" cy="350" r="16" fill="none" stroke="#3b82f6" stroke-width="1.5" opacity="0.6"/>
  <circle cx="150" cy="500" r="16" fill="none" stroke="#3b82f6" stroke-width="1.5" opacity="0.6"/>
  <circle cx="150" cy="650" r="16" fill="none" stroke="#3b82f6" stroke-width="1.5" opacity="0.6"/>
  <!-- Layer 2 -->
  <circle cx="400" cy="150" r="16" fill="none" stroke="#60a5fa" stroke-width="1.5" opacity="0.5"/>
  <circle cx="400" cy="300" r="16" fill="none" stroke="#60a5fa" stroke-width="1.5" opacity="0.5"/>
  <circle cx="400" cy="450" r="16" fill="none" stroke="#60a5fa" stroke-width="1.5" opacity="0.5"/>
  <circle cx="400" cy="600" r="16" fill="none" stroke="#60a5fa" stroke-width="1.5" opacity="0.5"/>
  <circle cx="400" cy="720" r="16" fill="none" stroke="#60a5fa" stroke-width="1.5" opacity="0.5"/>
  <!-- Layer 3 -->
  <circle cx="650" cy="250" r="16" fill="none" stroke="#93c5fd" stroke-width="1.5" opacity="0.4"/>
  <circle cx="650" cy="420" r="16" fill="none" stroke="#93c5fd" stroke-width="1.5" opacity="0.4"/>
  <circle cx="650" cy="590" r="16" fill="none" stroke="#93c5fd" stroke-width="1.5" opacity="0.4"/>
  <!-- Layer 4 output -->
  <circle cx="900" cy="350" r="20" fill="#1d4ed8" stroke="#3b82f6" stroke-width="2" opacity="0.7"/>
  <circle cx="900" cy="520" r="20" fill="#1d4ed8" stroke="#3b82f6" stroke-width="2" opacity="0.7"/>
  <!-- Connections layer1->layer2 -->
  <g stroke="#3b82f6" stroke-width="0.5" opacity="0.12">
    <line x1="166" y1="200" x2="384" y2="150"/><line x1="166" y1="200" x2="384" y2="300"/>
    <line x1="166" y1="200" x2="384" y2="450"/><line x1="166" y1="200" x2="384" y2="600"/>
    <line x1="166" y1="350" x2="384" y2="150"/><line x1="166" y1="350" x2="384" y2="300"/>
    <line x1="166" y1="350" x2="384" y2="450"/><line x1="166" y1="350" x2="384" y2="600"/>
    <line x1="166" y1="500" x2="384" y2="300"/><line x1="166" y1="500" x2="384" y2="450"/>
    <line x1="166" y1="500" x2="384" y2="600"/><line x1="166" y1="500" x2="384" y2="720"/>
    <line x1="166" y1="650" x2="384" y2="450"/><line x1="166" y1="650" x2="384" y2="600"/>
    <line x1="166" y1="650" x2="384" y2="720"/>
  </g>
  <!-- Connections layer2->layer3 -->
  <g stroke="#60a5fa" stroke-width="0.5" opacity="0.1">
    <line x1="416" y1="150" x2="634" y2="250"/><line x1="416" y1="150" x2="634" y2="420"/>
    <line x1="416" y1="300" x2="634" y2="250"/><line x1="416" y1="300" x2="634" y2="420"/>
    <line x1="416" y1="450" x2="634" y2="250"/><line x1="416" y1="450" x2="634" y2="420"/>
    <line x1="416" y1="450" x2="634" y2="590"/><line x1="416" y1="600" x2="634" y2="420"/>
    <line x1="416" y1="600" x2="634" y2="590"/><line x1="416" y1="720" x2="634" y2="590"/>
  </g>
  <!-- Connections layer3->output -->
  <g stroke="#93c5fd" stroke-width="0.8" opacity="0.2">
    <line x1="666" y1="250" x2="880" y2="350"/><line x1="666" y1="250" x2="880" y2="520"/>
    <line x1="666" y1="420" x2="880" y2="350"/><line x1="666" y1="420" x2="880" y2="520"/>
    <line x1="666" y1="590" x2="880" y2="350"/><line x1="666" y1="590" x2="880" y2="520"/>
  </g>
  <!-- Binary rain right -->
  <g font-family="monospace" font-size="11" fill="#3b82f6" opacity="0.07">
    <text x="1050" y="50">10110</text><text x="1100" y="120">01001</text>
    <text x="1050" y="190">11010</text><text x="1150" y="260">00111</text>
    <text x="1050" y="330">10101</text><text x="1100" y="400">11100</text>
    <text x="1050" y="470">01011</text><text x="1150" y="540">10010</text>
    <text x="1050" y="610">11001</text><text x="1100" y="680">00101</text>
    <text x="1050" y="750">10110</text><text x="1150" y="820">01110</text>
    <text x="1250" y="80">11010</text><text x="1300" y="200">00110</text>
    <text x="1250" y="320">10001</text><text x="1300" y="440">11011</text>
    <text x="1250" y="560">01100</text><text x="1300" y="680">10111</text>
    <text x="1250" y="800">00011</text>
  </g>
</svg>